# xmcd
#
# Track frame offsets:
# 150
# 4785
# 26535
# 54952
# 83470
# 112707
# 135642
# 156962
# 178725
# 198105
# 218935
# 240470
# 260800
#
# Disc length: 3722 seconds
#
#
# Revision: 4
# Processed by: cddbd v1.5.2PL0 Copyright (c) Steve Scherf et al.
# Submitted via: FreeRIP 2.944 
#
DISCID=9f0e880d
DTITLE=Ultimate Guitar - Blues Play-Along
DYEAR=1900
DGENRE=
TTITLE0=Tune Up
TTITLE1=Ship, Captain, Crew
TTITLE2=Ginger Pepper
TTITLE3=Deja Blue
TTITLE4=I Do What I Want
TTITLE5=Funky Blues
TTITLE6=3's Wild
TTITLE7=Never Ending Blues
TTITLE8=Drop Dead Blues
TTITLE9=Clear Road Blues
TTITLE10=Vinda's Place
TTITLE11=Bad Dog Blues
TTITLE12=Sunset Saloon
EXTD=
EXTT0=
EXTT1=
EXTT2=
EXTT3=
EXTT4=
EXTT5=
EXTT6=
EXTT7=
EXTT8=
EXTT9=
EXTT10=
EXTT11=
EXTT12=
PLAYORDER=
